<svg xmlns="http://www.w3.org/2000/svg"
     viewBox="0 0 100 100"
     width="100px"
     height="100px"
     fill="none">
    <path d="M 48.134766 12.957031 C 28.026829
    13.05603 14.031219 30.333409 13.001953
    49.894531 C 11.937592 70.117399 29.627796
    85.984147 49.898438 86.998047 C 71.074026
    88.056826 85.947891 70.021328 86.996094
    50.105469 C 88.07447 29.611015 70.350232
    14.014852 50.099609 13.001953 C 49.438476
    12.968896 48.783409 12.953838 48.134766
    12.957031 z M 48.148438 16.957031 C
    48.725874 16.954469 49.309571 16.968604
    49.898438 16.998047 C 50.987572 17.052523
    52.067035 17.156571 53.134766 17.300781 L
    52.052734 19.568359 A 1.0002693 1.0002693
    0 1 0 53.857422 20.431641 L 55.191406
    17.636719 C 56.804732 17.944324 58.385612
    18.349031 59.921875 18.851562 L 58.009766
    21.400391 A 1.0001 1.0001 0 1 0 59.609375
    22.599609 L 61.886719 19.5625 C 63.507065
    20.193533 65.069388 20.931007 66.5625
    21.767578 L 64.873047 25.060547 A 1.0001
    1.0001 0 1 0 66.652344 25.972656 L
    68.283203 22.792969 C 69.444007 23.530525
    70.554645 24.329958 71.609375 25.1875 L
    69.371094 28.609375 A 1.0001 1.0001 0 1 0
    71.042969 29.705078 L 73.134766 26.507812
    C 74.314536 27.589346 75.408861 28.74879
    76.408203 29.978516 L 74.292969 32.376953
    A 1.0001 1.0001 0 1 0 75.791016 33.701172
    L 77.646484 31.597656 C 78.584735 32.919915
    79.420487 34.309902 80.132812 35.765625
    L 77.863281 38.337891 A 1.0004441 1.0004441
    0 1 0 79.363281 39.662109 L 81.017578
    37.787109 C 82.498049 41.505974 83.22903
    45.578957 83.001953 49.894531 C 82.050156
    67.978672 68.924021 83.943174 50.099609
    83.001953 C 48.025831 82.898227 45.988862
    82.615861 44.001953 82.185547 L 44.001953
    79 A 1.0001 1.0001 0 0 0 42.986328
    77.986328 A 1.0001 1.0001 0 0 0 42.001953
    79 L 42.001953 81.699219 C 40.471901
    81.279475 38.980618 80.763822 37.535156
    80.164062 L 38.894531 77.447266 A 1.0001
    1.0001 0 0 0 37.955078 75.988281 A 1.0001
    1.0001 0 0 0 37.107422 76.552734 L
    35.707031 79.351562 C 34.229434 78.643421
    32.808954 77.844698 31.457031 76.958984 L
    35.708984 72.707031 A 1.0001 1.0001 0 0 0
    34.980469 70.990234 A 1.0001 1.0001 0 0 0
    34.292969 71.292969 L 29.791016 75.794922
    C 28.690653 74.981213 27.644896 74.108544
    26.658203 73.181641 L 28.859375 69.513672
    A 1.0001 1.0001 0 0 0 28.033203 67.988281
    A 1.0001 1.0001 0 0 0 27.142578 68.486328
    L 25.197266 71.730469 C 24.262898 70.738196
    23.401354 69.688601 22.605469 68.595703 L
    25.78125 64.625 A 1.0001 1.0001 0 0 0
    24.96875 62.990234 A 1.0001 1.0001 0 0 0
    24.220703 63.375 L 21.425781 66.869141 C
    20.756307 65.806214 20.159169 64.7016
    19.628906 63.564453 L 22.78125 59.625 A
    1.0001 1.0001 0 0 0 21.96875 57.990234
    A 1.0001 1.0001 0 0 0 21.220703 58.375 L
    18.748047 61.466797 C 18.248597 60.130897
    17.851375 58.753472 17.556641 57.339844 L
    20.447266 55.894531 A 1.0001 1.0001 0 0 0
    20.005859 53.994141 A 1.0001 1.0001 0 0 0
    19.554688 54.105469 L 17.201172 55.28125
    C 16.979703 53.597158 16.903254 51.869426
    16.996094 50.105469 C 17.887807 33.15852
    29.081947 18.539335 45.582031 17.087891 L
    44.142578 19.486328 A 1.0003534 1.0003534
    0 1 0 45.859375 20.513672 L 47.990234
    16.962891 C 48.043415 16.962386 48.095157
    16.957268 48.148438 16.957031 z M 67.261719
    36.835938 A 2.0002 2.0002 0 0 0 66.007812
    37.230469 C 59.205742 42.137306 53.780154
    49.67969 49.175781 57.941406 C 45.893353
    54.386999 41.617729 51.26812 36.013672
    48.771484 A 2.0004513 2.0004513 0 1 0
    34.384766 52.425781 C 40.629904 55.208021
    44.9338 58.65167 47.939453 62.578125 A
    2.0002 2.0002 0 0 0 51.294922 62.294922
    C 56.02882 53.329265 61.689837 45.277387
    68.347656 40.474609 A 2.0002 2.0002 0 0 0
    67.261719 36.835938 z M 58.087891 65.175781
    C 57.814016 65.202406 57.549828 65.3335
    57.361328 65.5625 C 56.984328 66.0205
    57.049813 66.699172 57.507812 67.076172
    C 57.964812 67.453172 58.644484 67.387687
    59.021484 66.929688 C 59.398484 66.471688
    59.331047 65.793016 58.873047 65.416016 C
    58.644047 65.227516 58.361766 65.149156
    58.087891 65.175781 z M 64.884766 70.773438
    C 64.610891 70.800062 64.346703 70.931156
    64.158203 71.160156 C 63.781203 71.618156
    63.846688 72.296828 64.304688 72.673828 C
    64.762687 73.050828 65.441359 72.983391
    65.818359 72.525391 C 66.195359 72.067391
    66.129875 71.390672 65.671875 71.013672
    C 65.442875 70.825172 65.158641 70.746813
    64.884766 70.773438 z M 59.226562
    72.246094 C 58.952688 72.272719 58.690453
    72.403312 58.501953 72.632812 C 58.124953
    73.090812 58.190438 73.769484 58.648438
    74.146484 C 59.106437 74.523484 59.783156
    74.456047 60.160156 73.998047 C 60.537156
    73.540047 60.471672 72.863328 60.013672
    72.486328 C 59.784672 72.297328 59.500437
    72.219469 59.226562 72.246094 z"
          fill="#d0730c"
    />
</svg>